<?xml version="1.0" encoding="utf-8"?>
<!-- Generator: Adobe Illustrator 19.1.0, SVG Export Plug-In . SVG Version: 6.00 Build 0)  -->
<svg version="1.1" id="Layer_1" xmlns="http://www.w3.org/2000/svg" xmlns:xlink="http://www.w3.org/1999/xlink" x="0px" y="0px"
	 viewBox="-25 0 120 59.8" style="background-color:transparent " xml:space="preserve">
<style type="text/css">
	.st0{fill:#ffff;}
	.st1{fill:#2FC877;}
</style>
<path class="st0" d="M8.4,0H5.5C1.8,0,0,1.1,0,3.2v53c0,2.1,1.8,3.2,5.5,3.2h2.9c3.6,0,5.5-1.1,5.5-3.2v-53C13.9,1.1,12,0,8.4,0z"/>
<path class="st0" d="M59.7,53c0-6.3,4.1-11.7,9.8-13.5c0.7-2.9,1-6.2,1-9.7C70.5,10.5,60.8,0,43.3,0H24.6c-2.6,0-3.8,1.2-3.8,3.8
	v51.7c0,2.6,1.2,3.8,3.8,3.8h18.7c6.7,0,12.2-1.5,16.5-4.5C59.7,54.3,59.7,53.6,59.7,53z M43.3,47.5h-8.6V11.9h8.6
	c10.8,0,13,9.7,13,17.8C56.3,37.8,54.1,47.5,43.3,47.5z"/>
<circle class="st1" cx="73.9" cy="53" r="6.5"/>
</svg>
